<svg class="animated" id="freepik_stories-sup" xmlns="http://www.w3.org/2000/svg" viewBox="0 0 500 500" version="1.1" xmlns:xlink="http://www.w3.org/1999/xlink" xmlns:svgjs="http://svgjs.com/svgjs"><style>svg#freepik_stories-sup:not(.animated) .animable {opacity: 0;}svg#freepik_stories-sup.animated #freepik--Character--inject-5 {animation: 1s 1 forwards cubic-bezier(.36,-0.01,.5,1.38) slideLeft,1.5s Infinite  linear floating;animation-delay: 0s,1s;}            @keyframes slideLeft {                0% {                    opacity: 0;                    transform: translateX(-30px);                }                100% {                    opacity: 1;                    transform: translateX(0);                }            }                    @keyframes floating {                0% {                    opacity: 1;                    transform: translateY(0px);                }                50% {                    transform: translateY(-10px);                }                100% {                    opacity: 1;                    transform: translateY(0px);                }            }        </style><g id="freepik--background-complete--inject-5" class="animable" style="transform-origin: 249.92px 161.962px;"><path d="M44.44,131.21c-.55,0-.6-1.09,0-1.17,2.59-.33,5.18-2.64,7.77-3a23.14,23.14,0,0,0,7.43-1.77c3.85-1.94,6.25-5.81,10.24-7.66,7-3.26,14.2-1.86,21,1a24.07,24.07,0,0,0,12.86,1.89c4-.5,7.85-1.6,11.81-2.17a23.44,23.44,0,0,1,10.6.51c3.56,1.15,6.61,3.38,10,5,4.4,2.13,8.76,1.76,13.5,1.9,3.42.1,10.57,2.26,10.57,4.56C160.23,131.87,51.22,131.21,44.44,131.21Z" style="fill: rgb(235, 235, 235); transform-origin: 102.114px 123.539px;" id="eldngfqat26f" class="animable"></path><path d="M417.43,245.19c-4.77,0-123.92-.83-157.58-.83-2.35,0,.62-4.07,1.92-4.36,4.14-.9,8.45-.95,12.65-1.39a40.85,40.85,0,0,0,12.06-3c3.32-1.39,6.62-3,10.21-3.57,6.93-1.09,13,2.67,19.52,4.33A14.7,14.7,0,0,0,328,234.73c3-1.8,5.74-4,8.88-5.56a48.75,48.75,0,0,1,38.94-1.78,45.56,45.56,0,0,1,8.51,4.36c3.18,2.08,5.92,4.75,9.11,6.81,7,4.56,15.78,3.08,23.48,5.7C417.37,244.4,417.85,245.19,417.43,245.19Z" style="fill: rgb(235, 235, 235); transform-origin: 338.282px 234.679px;" id="eluuteud5ulek" class="animable"></path><path d="M250.58,70.55c-6.31,0-112.54.7-119.22.49-.48,0-.74-.72-.26-1,4.21-2.08,9-1.66,13.36-3.14,2.57-.86,4.15-2.55,5.94-4.47a12.3,12.3,0,0,1,5.52-3.61,11.61,11.61,0,0,1,6-.19c2.16.51,4,1.75,6.08,2.52,5.11,1.93,10.07.1,13.71-3.68,3-3.11,6-6,10.05-7.72a13.31,13.31,0,0,1,10.64-.15c3.89,1.77,6.57,5.32,10.23,7.45C217,59.63,222.18,59,227,59.79s8.47,4.8,12.67,7.13a9.06,9.06,0,0,0,4.58,1.42c.94,0,1.86-.28,2.79-.4,1.45-.18,2.82-.13,3.8,1.07C251,69.31,251,70.55,250.58,70.55Z" style="fill: rgb(235, 235, 235); transform-origin: 190.892px 59.8217px;" id="elbw61uoci3k6" class="animable"></path><path d="M215.37,208.34c-4.61,0-82.17.51-87,.36-.35,0-.54-.53-.19-.7,3.07-1.52,6.56-1.22,9.75-2.29a10.45,10.45,0,0,0,4.34-3.27,9,9,0,0,1,4-2.64,8.53,8.53,0,0,1,4.4-.13,36.43,36.43,0,0,1,4.44,1.84c3.72,1.41,7.34.07,10-2.69,2.2-2.27,4.36-4.41,7.34-5.64a9.77,9.77,0,0,1,7.77-.11c2.84,1.29,4.79,3.89,7.47,5.44,3.16,1.86,6.95,1.42,10.45,2s6.19,3.5,9.25,5.2a6.59,6.59,0,0,0,3.35,1,20.39,20.39,0,0,0,2-.28,2.79,2.79,0,0,1,2.77.78C215.71,207.43,215.67,208.34,215.37,208.34Z" style="fill: rgb(235, 235, 235); transform-origin: 171.814px 200.523px;" id="eljpp86xrer2" class="animable"></path><path d="M454.07,172.84H322.38c-.53,0-.73-.57-.2-.82,4.72-2.21,10-1.64,14.89-3.17,2.87-.9,4.66-2.73,6.69-4.83a13.64,13.64,0,0,1,6.21-3.88,13,13,0,0,1,6.68-.07c2.38.62,4.42,2,6.69,2.94,5.61,2.26,11.15.34,15.28-3.76,3.4-3.38,6.75-6.57,11.32-8.34a14.81,14.81,0,0,1,11.8.08c4.28,2,7.17,6,11.18,8.5,4.75,2.91,10.52,2.37,15.81,3.33s9.72,3.24,14.32,5.92a10.1,10.1,0,0,0,5.05,1.68c1,0,2.07-.27,3.1-.38,1.61-.16,3.13-.08,4.19,1.28C455.64,171.65,457.17,172.84,454.07,172.84Z" style="fill: rgb(235, 235, 235); transform-origin: 388.928px 161.282px;" id="elxdpxtx1k2j" class="animable"></path><path d="M200.45,275.17s6.34-10.26,6.6-17.47c.3-7.85-4.5-16.25-4.5-16.25l.37-.29s6.77,8.63,6.13,17.72c-.63,8.8-5.75,16.29-5.75,16.29Z" style="fill: rgb(166, 166, 166); transform-origin: 204.771px 258.165px;" id="elf372tapczp4" class="animable"></path><path d="M202.61,241.16s4-3.62,5.91-3.5,5.66,4.37,5.66,4.51-3.26-2.26-3.26-2.26l1.91,2.47-2.73-2.52L211,242l-1.58-2.35.44,2.23-1.5-2.14.76,1.64L207.9,240l.44,1.19-1-1.06.82,1.52-1.38-1.4.56,1.23-.82-.85c-.12-.12.23.82.23.82l-1.14-1.17.26,1-.58-.61.11.61-.58-.61.13.55-.89-.58.11.29Z" style="fill: rgb(166, 166, 166); transform-origin: 208.395px 240.019px;" id="elr7m8zp06lyj" class="animable"></path><path d="M202.65,241.13s6.46.69,8,1.86,3.81,5.16,3.81,5.16l-3.25-3.32,1.61,3.32-2.32-3.55.47,2.94-1.7-3.32.65,2.9-1.23-3.31.4,3.17-1.49-3.46L208,246l-1.26-2.78.47,2.46-1.7-3.22.65,2.75-1.25-3,.16,1.44-1-1.76.34,1.17-1.09-1.54.15,1Z" style="fill: rgb(166, 166, 166); transform-origin: 208.555px 244.64px;" id="elv2of3goi67q" class="animable"></path><path d="M202.67,241.16s.35-4.45,1.53-5.48,5-2.2,5-2.2l-2.28,1.12,2.28-.21-3.1.65,2.49.14-2.68.33,2.54.67-2.82-.21,1.5.53-1.88.18,2.17.29-2.55.35h1.79l-2.49.64a11.21,11.21,0,0,1,1.74,0,11.11,11.11,0,0,1-1.95.59l1.07.15-1.21.2.9.36-1.17,0,.91.23-1,.26.41.18-.76.36Z" style="fill: rgb(166, 166, 166); transform-origin: 205.935px 237.32px;" id="eleragw7iyyas" class="animable"></path><path d="M202.73,241.11s-2,3.38-1.57,5.72,3.11,6.54,3.11,6.54L203,250.7l1.85,1.7-2.07-2.66,2.07,1.2L203,249.06l1.67.62-1.52-1.44,1.7.65-1.7-1.32,1.52.38-2-1.29,1.87.58-1.43-.87,1.35.2-1.69-1,1.39.06-1.7-1.08L204,245l-1.56-.91,1.29.09s-1.05-.79-1.11-.79,1,.17,1,.17l-.9-1,.49-.09Z" style="fill: rgb(166, 166, 166); transform-origin: 202.975px 247.24px;" id="el44775ru7mvj" class="animable"></path><path d="M202.67,241.16s-1.91-4.37-3.74-5.31a13.41,13.41,0,0,0-5.12-.86l2.32.51-2.13.17,3.46.33-3.3.3,4.08.45-3.65.27,3.07.53L196,238l2.42-.11-2,.42,2.61.29-1.83.45h3.16l-1.83.53,1.95,0-1.21.31s1.72.37,1.85.37-1,.08-1,.08l1.89.39-.64.06Z" style="fill: rgb(166, 166, 166); transform-origin: 198.24px 238.072px;" id="eleq6z7zu70hg" class="animable"></path><path d="M202.65,241.11s.07-5.42-.73-6.81a4.83,4.83,0,0,0-2.58-1.9l1.38,1.08-1.38-.18,1.44.88-1.56-.12,1.88.83-1.53-.18,1.41.64-.94,0,1.31.77-1.11-.26,1.25.88-1.16-.31,1.41,1-1-.33,1.35,1-1-.29,1,.66-.6-.12.8.67-.69-.31.81.82-.49-.18Z" style="fill: rgb(166, 166, 166); transform-origin: 200.936px 236.755px;" id="elie1gilh84t" class="animable"></path><path d="M202.73,241.26s-6.13-1.93-8.89-1-4.06,4.2-4.06,4.2l1.95-2-.62,2.17,1.76-2.6-.49,2.42,1.17-2.44-.41,2.52,1.35-2.65-.3,2.75,1.33-2.91-.35,2.11,1.33-2.42-.72,2.85,1.52-2.85-.43,2.48c0-.12,1.09-2.35,1.09-2.35l-.19,1.63.84-1.53-.16,1.17,1-1.4-.33,1.33,1-1.33-.15.8a12.56,12.56,0,0,1,1-.85C201.07,241.34,202.73,241.26,202.73,241.26Z" style="fill: rgb(166, 166, 166); transform-origin: 196.255px 242.318px;" id="eli3wqliur89" class="animable"></path><path d="M202.73,241.16s-3.53.91-4.62,2.46S198,251,198,251l0-3.36.74,1.61-.6-2.47,1.21,1.72-1.1-2.73,1.29,2-.94-2.72,1.2,2-.75-2.62,1,2-.37-2.48.72,1.51-.33-1.94.62,1.14-.19-1.67.38.92.18-1.19,0,.64.4-1.27v.65l.45-.86Z" style="fill: rgb(166, 166, 166); transform-origin: 200.163px 246.08px;" id="eldbilsnc74w" class="animable"></path><path d="M199.83,275.17H207s-.46-2.54,2.81-3.75a4.37,4.37,0,0,0-3.36,2.15s1.6-4.3,5.08-5.08a8.88,8.88,0,0,0-6,4.73s-.7-3.77,4.46-5.85c0,0-4.66.36-6.43,6.16,0,0,.94-5-2.93-7.15,0,0,2.42,2.38,2.07,5.39a5.33,5.33,0,0,0-5.55-3.52s4.38,1.41,4.73,4.38a5.6,5.6,0,0,0-4-2.42s2.23,1.05,2.58,2.11c0,0-1.4-1.29-2.62-.63C197.75,271.69,200.33,272,199.83,275.17Z" style="fill: rgb(166, 166, 166); transform-origin: 204.34px 270.775px;" id="el0h8eka4s5ci" class="animable"></path><path d="M101.75,275.17s4.58-7.41,4.77-12.62c.22-5.68-3.25-11.74-3.25-11.74l.26-.21s4.9,6.23,4.43,12.8a26.94,26.94,0,0,1-4.15,11.77Z" style="fill: rgb(166, 166, 166); transform-origin: 104.871px 262.885px;" id="elcp7zqngceqm" class="animable"></path><path d="M103.32,250.6s2.91-2.62,4.26-2.53,4.09,3.15,4.09,3.26-2.35-1.63-2.35-1.63l1.38,1.78-2-1.83.63,1.53-1.14-1.69.32,1.6-1.08-1.54.54,1.18-.86-1,.32.86-.75-.76.6,1.1-1-1,.4.89s-.5-.53-.59-.61.17.59.17.59l-.82-.85.19.76-.43-.44.09.44-.43-.44.1.4-.65-.42.09.21Z" style="fill: rgb(166, 166, 166); transform-origin: 107.495px 249.774px;" id="eleanwy31r9xc" class="animable"></path><path d="M103.34,250.57s4.67.5,5.79,1.35a17.25,17.25,0,0,1,2.75,3.73l-2.35-2.4,1.17,2.4L109,253.08l.34,2.12-1.23-2.39.47,2.1-.89-2.4.29,2.29-1.07-2.5.29,1.8-.91-2,.34,1.78-1.23-2.33.47,2-.9-2.14.12,1-.69-1.27.24.84-.78-1.11.1.69Z" style="fill: rgb(166, 166, 166); transform-origin: 107.61px 253.11px;" id="el79w811nttu" class="animable"></path><path d="M103.36,250.6s.25-3.22,1.1-4a14.94,14.94,0,0,1,3.62-1.59l-1.65.8,1.65-.14-2.24.46,1.8.11-1.94.23,1.83.49-2-.15,1.08.38-1.36.13,1.57.21-1.84.25h1.29l-1.8.47a7.56,7.56,0,0,1,1.26,0,9.32,9.32,0,0,1-1.41.42l.77.11-.88.15.66.25-.85,0,.66.17-.72.19.3.13-.55.26Z" style="fill: rgb(166, 166, 166); transform-origin: 105.72px 247.805px;" id="els8mw63uwqxl" class="animable"></path><path d="M103.4,250.56s-1.47,2.44-1.13,4.14a20.63,20.63,0,0,0,2.24,4.72l-1-1.93,1.33,1.23-1.49-1.93,1.49.87-1.33-1.35,1.21.44-1.1-1,1.22.47-1.22-1,1.1.27-1.44-.93,1.35.42-1-.63,1,.15-1.22-.72,1,0-1.23-.79,1.14.3-1.12-.66.93.07s-.76-.57-.8-.57l.72.12-.65-.7.35-.06Z" style="fill: rgb(166, 166, 166); transform-origin: 103.529px 254.99px;" id="elbvoqarfhwa" class="animable"></path><path d="M103.36,250.6s-1.38-3.17-2.71-3.84a9.64,9.64,0,0,0-3.7-.62l1.68.36-1.54.13,2.5.24-2.38.21,3,.33-2.64.19,2.21.39-1.17.29,1.75-.07-1.45.3,1.89.21-1.33.32h2.29l-1.33.39,1.42,0-.88.22s1.24.27,1.34.27l-.73.06,1.37.28-.47,0Z" style="fill: rgb(166, 166, 166); transform-origin: 100.155px 248.368px;" id="elleri91py0v" class="animable"></path><path d="M103.34,250.56s0-3.92-.53-4.92a3.51,3.51,0,0,0-1.86-1.37l1,.78-1-.13,1,.63-1.13-.08,1.36.59-1.1-.13,1,.47-.67,0,.94.55-.8-.18.9.63-.83-.22,1,.7-.74-.24,1,.7-.72-.22.73.48-.43-.08.58.48-.5-.23.58.59-.35-.12Z" style="fill: rgb(166, 166, 166); transform-origin: 102.08px 247.415px;" id="el5bu36zvqbff" class="animable"></path><path d="M103.4,250.67S99,249.28,97,250A5.76,5.76,0,0,0,94,253l1.41-1.46L95,253.11l1.27-1.88L95.92,253l.85-1.76-.3,1.82,1-1.92-.21,2,1-2.1-.25,1.52,1-1.75-.52,2.06,1.1-2.06s-.33,1.88-.31,1.79.79-1.69.79-1.69l-.14,1.17.6-1.1-.11.85.71-1-.25,1,.71-1-.11.58s.68-.6.75-.62S103.4,250.67,103.4,250.67Z" style="fill: rgb(166, 166, 166); transform-origin: 98.7px 251.467px;" id="el3edfltc9jw5" class="animable"></path><path d="M103.4,250.6s-2.55.66-3.34,1.77-.07,5.32-.07,5.32l0-2.42.54,1.15-.44-1.78.88,1.25-.79-2,.93,1.45-.68-2,.86,1.41-.53-1.89.72,1.47-.27-1.79.52,1.08-.24-1.39.45.82-.14-1.2.28.66.13-.86,0,.46.28-.92v.47l.33-.62Z" style="fill: rgb(166, 166, 166); transform-origin: 101.545px 254.145px;" id="elbk8w4l9z8cd" class="animable"></path><path d="M101.3,275.17h5.17s-.33-1.84,2-2.71a3.17,3.17,0,0,0-2.43,1.55s1.16-3.1,3.67-3.67a6.43,6.43,0,0,0-4.36,3.42s-.51-2.72,3.22-4.22c0,0-3.37.25-4.64,4.44,0,0,.67-3.64-2.12-5.16a5.23,5.23,0,0,1,1.49,3.89,3.83,3.83,0,0,0-4-2.54s3.16,1,3.41,3.16a4,4,0,0,0-2.91-1.75s1.61.77,1.87,1.53c0,0-1-.93-1.89-.45C99.81,272.66,101.67,272.91,101.3,275.17Z" style="fill: rgb(166, 166, 166); transform-origin: 104.505px 271.995px;" id="elxxopbiczlzn" class="animable"></path><path d="M132.13,275.25H137s-8.29-7-9.6-14,1.05-9.95,1.05-9.95l-.5-.3a15.86,15.86,0,0,0-1.41,10.4C127.81,267.21,132.13,275.25,132.13,275.25Z" style="fill: rgb(166, 166, 166); transform-origin: 131.608px 263.125px;" id="elmmcwknn1s0c" class="animable"></path><path d="M128,251.56s-4.42,1.64-5.83,2.94-1.74,6.61-1.74,6.61l.93-3.69-.4,3.15,1.14-4.05-.1,4,.77-5,.07,4.08.5-4.32.37,3.3.17-3.5.33,2.68.4-3.25-.1,2.92.91-3.35-.17,2.11,1-2.32-.35,1.75.73-2.18-.16,1.21Z" style="fill: rgb(166, 166, 166); transform-origin: 124.215px 256.335px;" id="elsrku22jql8d" class="animable"></path><path d="M128,251.56s2.58,1.5,3,3.62-.54,6.43-.54,6.43l0-3.42-.86,2.28.49-3.32-.84,2.45.35-3.27-.78,1.73.53-2.78-.84,1.3.61-2.28-.87,1.34.5-2.41-.67,1.14.33-1.84-.53.74.37-1.18Z" style="fill: rgb(166, 166, 166); transform-origin: 129.493px 256.585px;" id="ely083lvbo8qc" class="animable"></path><path d="M127.78,252s-1.75-3.14-4.53-4.11a8.52,8.52,0,0,0-5.79.47l3.25-.21-2.18.84,3.15-.3-2.41,1.27,3.35-.83s-2.11,2.07-2,1.94,2.58-1.71,2.58-1.71l-1.44,2.25,2.24-1.83L122.62,252l2.07-1.67L123,252.23,125.5,251l-1.31,1.31,1.84-.77-.8.77,1.58-.77Z" style="fill: rgb(166, 166, 166); transform-origin: 122.62px 249.949px;" id="elifcfkuz0st" class="animable"></path><path d="M128,251.56s.27-5.16-.91-7.58-5.16-3.62-5.16-3.62l2.68,2.12-2.68-1,3,1.64s-2.48-.44-2.58-.47l3,1.14-3-.07,3.08.67-2.78.1,2.91.67-2.91.1,3.6.74-3-.23,3,.9-2.53-.1,2.85,1-2.35-.2,2.48.77-1.51-.1,1.85.77-1.38.07,1.54.43-1,.17,1.22.5h-1.37l1.37.71Z" style="fill: rgb(166, 166, 166); transform-origin: 124.978px 245.96px;" id="el24mzx8xrl0gi" class="animable"></path><path d="M128,252s2.61-1.44,4.72-1.14,4.83,2.61,4.83,2.61l-1.74-.87.83,1.44-1.44-1.61.47,2.11-.94-2-.06,1.81-1-2v1.87l-.81-1.87.07,2.17-1-2.17-.13,1.54-.51-1.81-.24,1.27-.46-1.14-.37,1-.27-1.28-.24,1-.46-.91Z" style="fill: rgb(166, 166, 166); transform-origin: 132.775px 252.679px;" id="elz9nzeeg8q8i" class="animable"></path><path d="M128,251.39s-.32-4.69.68-6.7,4.26-4.16,4.26-4.16L131,242.68l2.12-.57-2.59,1.34H133l-2.71.57a11.75,11.75,0,0,0,1.84.73c.2,0-2.18-.3-2.18-.3l1.69,1.21-2.06-.54,1.85,1-2-.3,1.49.69-1.76-.07s1.23.59,1.28.59l-1.54-.09,1.34.84-1.38-.08,1.21.57-1.22,0,.82.3-1,.24,1,.1-1,.25.88.18-.92.14.66.22-.86.15.5.3-.65.22.35.15Z" style="fill: rgb(166, 166, 166); transform-origin: 130.536px 245.96px;" id="ell6368rmvlv" class="animable"></path><path d="M128,252s1.92-4.31,4-5.61,6.94-.83,6.94-.83l-3.9.67,2.89,1.14-3.64-.48,2.49,1.18-3.34-.8,2.26,1.35-3.29-1,2.61,1.64L131.83,248l2.06,1.88-2.51-1.5,1.93,1.81L131,248.81l1.26,1.76-1.73-1.26,1.06,1.49-1.46-1.06L131,251l-1.25-.73.78,1.1-1.31-.75.86.92S129,251,128.89,251s.51.54.51.54l-.78-.17Z" style="fill: rgb(166, 166, 166); transform-origin: 133.47px 248.739px;" id="ele8xad39z4gt" class="animable"></path><path d="M129.18,275.25s.3-1.91-2.36-4a5,5,0,0,1,2.64,2.43,4.5,4.5,0,0,0-3.32-4,4.72,4.72,0,0,1,4.07,3.22s-.2-3.54-3-5.1c0,0,2.69,1,4,4.91a8.23,8.23,0,0,1,5.15-3.22s-3.11,1.25-3.15,3.65c0,0,2.27-3.05,5.09-2.8,0,0-3.22.86-3.22,3.14a3.65,3.65,0,0,1,3.42-1.84s-3.54,1.41-2,3.55Z" style="fill: rgb(166, 166, 166); transform-origin: 132.32px 271.525px;" id="el61uh028sku" class="animable"></path><path d="M226.72,275.25h4.16s-7.07-6-8.19-11.91.9-8.48.9-8.48l-.42-.26a13.51,13.51,0,0,0-1.2,8.87C223,268.39,226.72,275.25,226.72,275.25Z" style="fill: rgb(166, 166, 166); transform-origin: 226.286px 264.925px;" id="elg85zxv94h2" class="animable"></path><path d="M223.18,255.06s-3.77,1.39-5,2.51-1.48,5.62-1.48,5.62l.8-3.14-.35,2.69,1-3.46-.08,3.4.65-4.28.06,3.48.43-3.68.31,2.81.15-3,.28,2.28.35-2.77-.09,2.48.77-2.85-.14,1.8.84-2-.3,1.48.63-1.85-.14,1Z" style="fill: rgb(166, 166, 166); transform-origin: 219.94px 259.125px;" id="elzff1fwzw3g" class="animable"></path><path d="M223.18,255.06s2.2,1.28,2.51,3.08a20.46,20.46,0,0,1-.45,5.48l0-2.91-.74,1.94.42-2.83-.71,2.09.29-2.78-.66,1.47.46-2.37-.72,1.11.52-1.94-.75,1.14.43-2.06-.57,1,.29-1.57-.46.63.31-1Z" style="fill: rgb(166, 166, 166); transform-origin: 224.379px 259.34px;" id="elylcq9losrz9" class="animable"></path><path d="M223,255.39a8.41,8.41,0,0,0-3.86-3.5,7.34,7.34,0,0,0-4.94.39l2.77-.17-1.85.72,2.68-.26-2.06,1.09,2.86-.72s-1.8,1.77-1.71,1.66,2.2-1.46,2.2-1.46l-1.23,1.92,1.91-1.56-1.17,1.89,1.77-1.42L219,255.63l2.12-1L220,255.71l1.57-.65-.68.65,1.34-.65Z" style="fill: rgb(166, 166, 166); transform-origin: 218.6px 253.671px;" id="elej9d59u59nr" class="animable"></path><path d="M223.18,255.06s.23-4.4-.77-6.46-4.4-3.08-4.4-3.08l2.29,1.8-2.29-.89,2.6,1.4s-2.11-.37-2.2-.4l2.51,1-2.57-.06,2.63.57-2.37.09,2.49.57-2.49.09,3.07.63-2.56-.2,2.56.77-2.16-.09,2.43.83-2-.17,2.12.65-1.29-.08,1.57.66-1.17.05,1.31.37-.81.15,1,.43h-1.17l1.17.6Z" style="fill: rgb(166, 166, 166); transform-origin: 220.606px 250.29px;" id="eldku9xwsw6xt" class="animable"></path><path d="M223.18,255.4a7.86,7.86,0,0,1,4-1c1.8.25,4.11,2.22,4.11,2.22l-1.49-.74.72,1.23-1.23-1.37.4,1.8-.8-1.72-.06,1.55-.82-1.69v1.6l-.69-1.6.06,1.86-.89-1.86-.11,1.32-.43-1.55-.21,1.09-.39-1-.32.85-.22-1.08-.21.86-.39-.77Z" style="fill: rgb(166, 166, 166); transform-origin: 227.235px 255.969px;" id="elfy7jfil7gbb" class="animable"></path><path d="M223.2,254.91s-.28-4,.58-5.71,3.63-3.54,3.63-3.54l-1.64,1.83,1.81-.49-2.21,1.14h2.07l-2.32.49a10.44,10.44,0,0,0,1.57.63c.17,0-1.85-.26-1.85-.26l1.44,1-1.76-.46,1.57.84-1.65-.25,1.27.58-1.5-.05s1,.5,1.08.5l-1.31-.08,1.14.72-1.17-.07,1,.48-1,0,.7.26-.85.2.82.09-.84.21.75.16-.78.11.55.19-.72.13.42.25-.55.19.3.13Z" style="fill: rgb(166, 166, 166); transform-origin: 225.368px 250.285px;" id="el5g8mai6eg8f" class="animable"></path><path d="M223.18,255.4s1.64-3.67,3.46-4.79,5.91-.7,5.91-.7l-3.32.58,2.46,1-3.1-.41,2.12,1-2.85-.69,1.92,1.16-2.8-.83,2.23,1.39-2.75-1,1.76,1.61-2.14-1.29,1.65,1.54-2-1.2,1.08,1.5-1.48-1.07.91,1.27-1.25-.9.74,1.09-1.06-.62.66.93-1.11-.63.73.78s-1-.46-1-.46.43.46.43.46l-.67-.15Z" style="fill: rgb(166, 166, 166); transform-origin: 227.865px 252.616px;" id="el4yydoarqdk3" class="animable"></path><path d="M224.2,275.25s.26-1.63-2-3.39a4.24,4.24,0,0,1,2.25,2.08,3.81,3.81,0,0,0-2.83-3.38,4,4,0,0,1,3.47,2.74,5.72,5.72,0,0,0-2.55-4.35,6.65,6.65,0,0,1,3.43,4.19,7,7,0,0,1,4.39-2.75s-2.65,1.06-2.69,3.12c0,0,1.94-2.6,4.34-2.4,0,0-2.74.74-2.74,2.68a3.1,3.1,0,0,1,2.91-1.56s-3,1.2-1.73,3Z" style="fill: rgb(166, 166, 166); transform-origin: 226.9px 272.1px;" id="elh9ww626mxdk" class="animable"></path><path d="M59.51,275.25H64s-7.64-6.48-8.84-12.86,1-9.16,1-9.16l-.46-.28a14.62,14.62,0,0,0-1.3,9.58C55.53,267.85,59.51,275.25,59.51,275.25Z" style="fill: rgb(166, 166, 166); transform-origin: 59.0512px 264.1px;" id="elgc2g14iaa1" class="animable"></path><path d="M55.69,253.45s-4.08,1.51-5.37,2.71-1.6,6.07-1.6,6.07l.86-3.39-.37,2.9,1-3.73-.09,3.67.7-4.63.07,3.77.46-4,.34,3,.15-3.22.31,2.47.37-3-.09,2.68.83-3.08-.15,1.94.9-2.13-.32,1.61.68-2-.15,1.11Z" style="fill: rgb(166, 166, 166); transform-origin: 52.205px 257.84px;" id="el8xjqnkv0ygq" class="animable"></path><path d="M55.69,253.45s2.37,1.38,2.71,3.33-.49,5.92-.49,5.92l0-3.15-.79,2.1.46-3-.78,2.25.32-3-.72,1.59.5-2.56-.77,1.2.55-2.1-.8,1.24L56.3,255,55.69,256l.3-1.7-.49.68.34-1.08Z" style="fill: rgb(166, 166, 166); transform-origin: 56.9909px 258.075px;" id="elcja32a9n5tc" class="animable"></path><path d="M55.5,253.81A9.11,9.11,0,0,0,51.34,250a7.93,7.93,0,0,0-5.34.44l3-.19L47,251l2.9-.28-2.22,1.18,3.08-.78s-1.94,1.92-1.85,1.79,2.38-1.57,2.38-1.57L50,253.45,52,251.76l-1.27,2.05,1.91-1.54-1.54,1.79L53.4,253l-1.2,1.21,1.7-.71-.74.71,1.45-.71Z" style="fill: rgb(166, 166, 166); transform-origin: 50.75px 251.969px;" id="el9vttr0gg33" class="animable"></path><path d="M55.69,253.45s.24-4.75-.84-7-4.75-3.33-4.75-3.33l2.47,1.94-2.47-1,2.81,1.51s-2.28-.4-2.37-.43l2.71,1-2.78-.06,2.84.62-2.56.09,2.68.62-2.68.09,3.31.68-2.75-.22,2.75.83-2.32-.09,2.62.89-2.16-.18,2.28.71-1.39-.09,1.7.71-1.26.06,1.41.4-.88.15,1.13.46H53.93l1.26.65Z" style="fill: rgb(166, 166, 166); transform-origin: 52.9064px 248.285px;" id="elt0rpj6qdk69" class="animable"></path><path d="M55.69,253.82a8.44,8.44,0,0,1,4.34-1c1.95.28,4.44,2.4,4.44,2.4l-1.6-.8.77,1.33-1.33-1.49.44,2-.87-1.85L61.82,256l-.89-1.81v1.72l-.74-1.72.06,2-1-2-.12,1.41-.46-1.66-.23,1.17L58.06,254l-.34.93-.25-1.17-.22.93-.42-.84Z" style="fill: rgb(166, 166, 166); transform-origin: 60.08px 254.537px;" id="elf5z0n3rr9di" class="animable"></path><path d="M55.71,253.29s-.3-4.31.62-6.17,3.92-3.82,3.92-3.82l-1.77,2,2-.52L58.05,246h2.23l-2.5.53a11.32,11.32,0,0,0,1.7.68c.18,0-2-.28-2-.28L59,248l-1.9-.49,1.7.91L57,248.16l1.37.63-1.61-.06s1.12.54,1.17.54l-1.42-.08,1.23.77-1.26-.08,1.11.53-1.13,0,.76.28-.91.21.88.09-.91.24.81.16-.84.13.6.2-.79.14.46.27-.6.21.33.13Z" style="fill: rgb(166, 166, 166); transform-origin: 58.0716px 248.295px;" id="elafe6wtfw11w" class="animable"></path><path d="M55.69,253.82s1.76-4,3.73-5.17,6.38-.76,6.38-.76l-3.59.62,2.66,1-3.35-.44,2.29,1.09-3.07-.74,2.08,1.25-3-.9,2.4,1.5-3-1.11,1.9,1.73-2.32-1.38,1.79,1.66-2.12-1.29,1.17,1.62-1.6-1.16,1,1.37-1.35-1,.8,1.18-1.15-.67.72,1-1.2-.68.79.84s-1-.5-1.11-.5.46.5.46.5l-.72-.16Z" style="fill: rgb(166, 166, 166); transform-origin: 60.745px 250.82px;" id="eldof0y6vp5gm" class="animable"></path><path d="M56.79,275.25s.28-1.76-2.17-3.66a4.59,4.59,0,0,1,2.43,2.25A4.14,4.14,0,0,0,54,270.18a4.35,4.35,0,0,1,3.75,3s-.19-3.26-2.75-4.69a7.19,7.19,0,0,1,3.7,4.52,7.52,7.52,0,0,1,4.73-3s-2.86,1.14-2.9,3.36c0,0,2.1-2.81,4.69-2.59,0,0-3,.8-3,2.89A3.35,3.35,0,0,1,65.39,272s-3.26,1.29-1.87,3.26Z" style="fill: rgb(166, 166, 166); transform-origin: 59.695px 271.875px;" id="el6lcu4dx03ev" class="animable"></path><path d="M37.79,275.29s29.38-4.2,43.57-5,71.55,2.6,73.43,2.93,56.67-1.44,70.26-2,237,4.14,237,4.14Z" style="fill: rgb(166, 166, 166); transform-origin: 249.92px 272.764px;" id="elcll8fxj5sj" class="animable"></path></g><g id="freepik--Sun--inject-5" class="animable" style="transform-origin: 329.39px 68.04px;"><g id="elc46llvgjxy"><circle cx="329.39" cy="68.04" r="28" style="fill: rgb(255, 157, 0); opacity: 0.3; transform-origin: 329.39px 68.04px; transform: rotate(-79.07deg);" class="animable"></circle></g><g id="elfo8une5r3hp"><path d="M338.5,45.85a24,24,0,1,1-31.3,13.09A24,24,0,0,1,338.5,45.85Z" style="fill: rgb(255, 157, 0); opacity: 0.5; transform-origin: 329.4px 68.0581px;" class="animable"></path></g></g><g id="freepik--Lake--inject-5" class="animable" style="transform-origin: 249.95px 372.119px;"><path d="M40.28,306.47c27.48,0,80.24-8.64,96.65-8.64s59.27,8.64,99.47,8.64" style="fill: rgb(255, 255, 255); transform-origin: 138.34px 302.15px;" id="elv3p4h0l6kg" class="animable"></path><path d="M40.28,306.47c23.68-.61,49.82-4.61,73.48-7.2,8.18-.85,16.34-2,24.6-1.9,8.24.29,16.37,1.48,24.54,2.47,16.28,2.05,32.55,4.23,48.91,5.45,8.18.64,16.38,1.07,24.59,1.18-8.21,0-16.42-.22-24.62-.7-16.39-1-32.71-3-49-5-8.12-.95-16.28-2.11-24.45-2.37-8.16-.1-16.34,1-24.47,1.8-23.69,2.52-49.83,6.23-73.58,6.3Z" style="fill: rgb(235, 235, 235); transform-origin: 138.34px 301.932px;" id="elxphbnipcf9" class="animable"></path><path d="M251.9,295.3c18.09,0,52.84-8.64,63.65-8.64s39,8.64,65.51,8.64" style="fill: rgb(255, 255, 255); transform-origin: 316.48px 290.98px;" id="elbx49j8v70ge" class="animable"></path><path d="M251.9,295.3c16.31-.7,32.26-4.55,48.33-7.19,5.4-.85,10.76-2,16.27-1.91,5.49.3,10.81,1.49,16.18,2.48,10.68,2,21.33,4.21,32.13,5.43q8.08,1,16.25,1.19a155.68,155.68,0,0,1-16.3-.7c-10.84-1-21.56-3-32.25-5-5.3-.95-10.67-2.11-16-2.37-5.37-.09-10.77,1-16.09,1.8-15.57,2.5-32.73,6.23-48.48,6.3Z" style="fill: rgb(235, 235, 235); transform-origin: 316.48px 290.762px;" id="elt5desds0yag" class="animable"></path><path d="M222,340.43c18.09,0,52.84-8.64,63.65-8.64s39,8.64,65.51,8.64" style="fill: rgb(255, 255, 255); transform-origin: 286.58px 336.11px;" id="eluci0ljpakt" class="animable"></path><path d="M222,340.43c16.31-.7,32.26-4.55,48.33-7.19,5.4-.85,10.76-2,16.27-1.9,5.49.29,10.81,1.48,16.19,2.47,10.67,2,21.32,4.21,32.12,5.43q8.08,1,16.25,1.19a155.68,155.68,0,0,1-16.3-.7c-10.84-1-21.56-3-32.24-5-5.31-.95-10.67-2.1-16.05-2.37-5.37-.09-10.77,1-16.09,1.81-15.56,2.49-32.73,6.23-48.48,6.29Z" style="fill: rgb(235, 235, 235); transform-origin: 286.58px 335.897px;" id="elkhtqlwor69" class="animable"></path><path d="M299.89,384.41c18.09,0,52.84-8.63,63.65-8.63s39,8.63,65.51,8.63" style="fill: rgb(255, 255, 255); transform-origin: 364.47px 380.095px;" id="eltj0ik1cstbq" class="animable"></path><path d="M299.89,384.41c16.31-.7,32.26-4.55,48.33-7.19,5.4-.85,10.76-2,16.27-1.9,5.49.29,10.81,1.48,16.19,2.47,10.67,2,21.32,4.21,32.12,5.44q8.08,1,16.25,1.18a153,153,0,0,1-16.3-.7c-10.84-1-21.56-3-32.24-5-5.31-.94-10.68-2.1-16.05-2.36-5.37-.1-10.77,1-16.09,1.8-15.56,2.49-32.73,6.23-48.48,6.29Z" style="fill: rgb(235, 235, 235); transform-origin: 364.47px 379.877px;" id="el2t7s0khc85s" class="animable"></path><path d="M336.6,463.23c18.09,0,52.84-8.64,63.65-8.64s39,8.64,65.51,8.64" style="fill: rgb(255, 255, 255); transform-origin: 401.18px 458.91px;" id="el9e47c2tokoh" class="animable"></path><path d="M336.6,463.23c16.31-.71,32.26-4.56,48.33-7.2,5.4-.85,10.76-2,16.27-1.9,5.49.29,10.81,1.48,16.19,2.47,10.67,2,21.32,4.21,32.12,5.44,5.39.64,10.81,1,16.25,1.19a158.45,158.45,0,0,1-16.3-.7c-10.84-1-21.56-3-32.24-5-5.31-.94-10.68-2.1-16.05-2.36-5.37-.1-10.77,1-16.09,1.8-15.56,2.49-32.73,6.23-48.48,6.3Z" style="fill: rgb(235, 235, 235); transform-origin: 401.18px 458.697px;" id="el9vn8objym7" class="animable"></path><path d="M448.77,318.22c-32.7,0-67.58-8.63-80.92-8.63s-56.28,8.63-78.63,8.63c-32,0-64.62-6-85.79-6s-54,7.88-82.35,7.88" style="fill: rgb(255, 255, 255); transform-origin: 284.925px 314.845px;" id="elpx8x3ojlzy" class="animable"></path><path d="M448.77,318.22c-20.62.06-41.08-3-61.41-6.12-6.76-1-13.57-2.2-20.4-2.15-6.83.25-13.64,1.34-20.42,2.25-19.8,2.65-41.49,6.77-61.43,6.48-27.5-.22-54.66-5.5-82.11-6.09-13.71.2-27.31,2.51-40.89,4.23s-27.29,3.35-41,3.31c13.74-.12,27.38-1.9,41-3.79s27.19-4.16,41-4.42c27.45.48,54.65,5.64,82.12,5.76,19.84.38,41.6-3.67,61.32-6.22,6.82-.89,13.61-1.94,20.51-2.18,6.9,0,13.69,1.26,20.49,2.25,20.33,3.18,40.71,6.52,61.33,6.69Z" style="fill: rgb(235, 235, 235); transform-origin: 284.995px 314.705px;" id="elzpiwahm12sk" class="animable"></path><path d="M34.24,369.89c30.37,0,62.76-8,75.15-8s52.26,8,73,8c29.73,0,60-5.54,79.66-5.54s50.12,7.31,76.48,7.31" style="fill: rgb(255, 255, 255); transform-origin: 186.385px 366.775px;" id="el7m6pvk82ykm" class="animable"></path><path d="M34.24,369.89c19.15-.18,38.08-3.28,57-6.23,6.32-.91,12.62-2.1,19-2.08,6.4.21,12.71,1.19,19,2,18.35,2.37,38.49,6.11,56.94,5.76,25.51-.11,50.77-4.89,76.26-5.33,12.79.25,25.4,2.43,38,4.1s25.28,3.42,38,3.54c-12.76,0-25.47-1.45-38.11-3.05s-25.24-3.74-38-3.92c-25.49.55-50.71,5.45-76.24,5.66-18.49.27-38.71-3.57-57.06-6-6.29-.84-12.61-1.85-18.95-2.09-6.34,0-12.67,1.11-18.94,2-18.88,2.92-37.89,5.72-57,5.66Z" style="fill: rgb(235, 235, 235); transform-origin: 186.29px 366.615px;" id="elqgittnd998" class="animable"></path><path d="M34.24,444.38c30.37,0,62.76-8,75.15-8s52.26,8,73,8c29.73,0,60-5.54,79.66-5.54s50.12,7.31,76.48,7.31" style="fill: rgb(255, 255, 255); transform-origin: 186.385px 441.265px;" id="el4s14li8z36" class="animable"></path><path d="M34.24,444.38c19.15-.18,38.08-3.28,57-6.23,6.32-.91,12.62-2.1,19-2.08,6.4.21,12.71,1.19,19,2,18.35,2.37,38.49,6.11,56.94,5.76,25.51-.11,50.77-4.89,76.26-5.33,12.79.25,25.4,2.43,38,4.1s25.28,3.42,38,3.54c-12.76,0-25.47-1.45-38.11-3s-25.24-3.74-38-3.92c-25.49.55-50.71,5.45-76.24,5.65-18.49.28-38.71-3.56-57.06-6-6.29-.84-12.61-1.85-18.95-2.09-6.34,0-12.67,1.11-18.94,2-18.88,2.92-37.89,5.72-57,5.66Z" style="fill: rgb(235, 235, 235); transform-origin: 186.29px 441.105px;" id="el131izn4jbojl" class="animable"></path><path d="M375.64,324.45c11.13,0,32.5-10.52,39.14-10.52s24,10.52,40.28,10.52" style="fill: rgb(255, 255, 255); transform-origin: 415.35px 319.19px;" id="elp1veep0iki" class="animable"></path><path d="M375.64,324.45c12.51-1.1,23.75-7.44,35.79-10.51,4.82-1.46,9.52,1,14,2.54,9.58,3.67,19.29,7.57,29.67,8-10.41.19-20.39-3.51-30-7.11-4.31-1.47-8.82-3.78-13.42-2.46-12,3-23.45,9.2-36,9.57Z" style="fill: rgb(235, 235, 235); transform-origin: 415.37px 318.99px;" id="elgephlsxzk2a" class="animable"></path><path d="M228,291.92c11.12,0,32.49-10.52,39.13-10.52s24,10.52,40.28,10.52" style="fill: rgb(255, 255, 255); transform-origin: 267.705px 286.66px;" id="el61u4048kt9u" class="animable"></path><path d="M228,291.92c12.5-1.1,23.74-7.44,35.78-10.51,4.82-1.45,9.52,1,14,2.55,9.58,3.66,19.3,7.56,29.67,8-10.41.19-20.39-3.5-30-7.11-4.31-1.47-8.82-3.78-13.41-2.46-12,3-23.46,9.2-36,9.57Z" style="fill: rgb(235, 235, 235); transform-origin: 267.725px 286.467px;" id="elo4kdsr37u4" class="animable"></path></g><g id="freepik--Birds--inject-5" class="animable" style="transform-origin: 249.995px 172.825px;"><path d="M89.45,169.61a22.4,22.4,0,0,1,2.66-1.14,11.17,11.17,0,0,1,2.9-.66,2.28,2.28,0,0,1,.9.1,1,1,0,0,1,.27.13,1.4,1.4,0,0,1,.18.12c.12.09.21.17.31.26a11.87,11.87,0,0,1,1.06,1.07c.65.73,1.23,1.49,1.81,2.28l-.72-.25a21.35,21.35,0,0,1,3-.63,13.15,13.15,0,0,1,1.55-.11,7.72,7.72,0,0,1,.82.06,2.36,2.36,0,0,1,.44.11,4.54,4.54,0,0,1,.45.21,5.23,5.23,0,0,1,1.17,1.12,14.6,14.6,0,0,1,.87,1.24,18.93,18.93,0,0,1,1.38,2.64c-.64-.76-1.25-1.53-1.91-2.25a14,14,0,0,0-1-1,5.25,5.25,0,0,0-1-.81,2.72,2.72,0,0,0-1.16-.11,11.15,11.15,0,0,0-1.38.19c-.93.17-1.88.4-2.79.64l-.46.13-.26-.38c-.53-.76-1.11-1.52-1.69-2.24a12.92,12.92,0,0,0-.89-1c-.08-.07-.16-.16-.23-.21l-.11-.09a.07.07,0,0,0,0,0,1.27,1.27,0,0,0-.51-.1,13.76,13.76,0,0,0-2.73.26C91.33,169.24,90.4,169.44,89.45,169.61Z" style="fill: rgb(38, 50, 56); transform-origin: 98.975px 171.98px;" id="elr2rlakucx0s" class="animable"></path><path d="M99.91,197.87a30.07,30.07,0,0,1,3.57-2.45,16.66,16.66,0,0,1,4.06-1.83,3.83,3.83,0,0,1,1.36-.12,2.17,2.17,0,0,1,.44.11l.3.14c.2.09.36.19.53.28a21.58,21.58,0,0,1,1.86,1.26c1.18.89,2.25,1.84,3.34,2.83l-1.13-.16a33.14,33.14,0,0,1,4.16-1.78,18,18,0,0,1,2.24-.61,7.78,7.78,0,0,1,1.23-.16,5.39,5.39,0,0,1,.68,0,6.15,6.15,0,0,1,.71.18,7.92,7.92,0,0,1,2,1.31,22,22,0,0,1,1.64,1.56,28.25,28.25,0,0,1,2.8,3.48c-1.16-.94-2.29-1.88-3.46-2.75a18.58,18.58,0,0,0-1.76-1.23,6.83,6.83,0,0,0-1.77-.89,4.08,4.08,0,0,0-1.73.17,17.18,17.18,0,0,0-2,.68c-1.32.52-2.64,1.13-3.91,1.76l-.63.32-.5-.48c-1-1-2.07-1.9-3.13-2.8a16.73,16.73,0,0,0-1.62-1.25,3.6,3.6,0,0,0-.39-.25l-.19-.1s0,0-.07,0a2.17,2.17,0,0,0-.77,0,20.83,20.83,0,0,0-4,1.19C102.56,196.77,101.25,197.33,99.91,197.87Z" style="fill: rgb(38, 50, 56); transform-origin: 114.805px 197.682px;" id="elqr5i8g6qmtj" class="animable"></path><path d="M415.06,164.81a21.52,21.52,0,0,1,2.69-1.07,10.9,10.9,0,0,1,2.91-.59,2.33,2.33,0,0,1,.9.12,1.32,1.32,0,0,1,.27.13,1.41,1.41,0,0,1,.18.14,3.73,3.73,0,0,1,.3.26,14.86,14.86,0,0,1,1,1.09c.64.75,1.2,1.53,1.76,2.33l-.72-.27a23,23,0,0,1,3-.55c.51,0,1-.08,1.55-.07a6.13,6.13,0,0,1,.82.08c.13,0,.29.08.44.12s.29.15.43.22a5.16,5.16,0,0,1,1.14,1.15,13.92,13.92,0,0,1,.85,1.26,19.53,19.53,0,0,1,1.31,2.68c-.62-.78-1.21-1.56-1.85-2.3a14,14,0,0,0-1-1.06,5.1,5.1,0,0,0-1-.84,2.76,2.76,0,0,0-1.15-.14,11.34,11.34,0,0,0-1.39.15c-.93.15-1.89.35-2.8.58l-.46.11L424,168c-.51-.78-1.07-1.55-1.63-2.29a11.2,11.2,0,0,0-.86-1c-.08-.07-.15-.16-.23-.22l-.1-.09a.07.07,0,0,0,0,0,1.41,1.41,0,0,0-.51-.12,14.51,14.51,0,0,0-2.74.2C417,164.49,416,164.66,415.06,164.81Z" style="fill: rgb(38, 50, 56); transform-origin: 424.475px 167.493px;" id="elggrpvlu34od" class="animable"></path><path d="M386.32,149.11a31.55,31.55,0,0,1,3.28-2.83,16.35,16.35,0,0,1,3.84-2.27,3.56,3.56,0,0,1,1.33-.27,2.8,2.8,0,0,1,.45.06l.31.1a5.92,5.92,0,0,1,.56.23,18.64,18.64,0,0,1,2,1c1.27.75,2.44,1.58,3.63,2.44l-1.14,0a34.68,34.68,0,0,1,3.94-2.23,18,18,0,0,1,2.16-.86,10,10,0,0,1,1.2-.29,4.88,4.88,0,0,1,.68,0,4.69,4.69,0,0,1,.73.09,7.85,7.85,0,0,1,2.17,1.07,19.5,19.5,0,0,1,1.81,1.37,27.74,27.74,0,0,1,3.17,3.15c-1.25-.8-2.48-1.62-3.74-2.35-.62-.37-1.25-.73-1.89-1a6.86,6.86,0,0,0-1.85-.68,4,4,0,0,0-1.71.36,16.19,16.19,0,0,0-1.89.9c-1.25.66-2.5,1.42-3.68,2.19l-.6.38-.55-.42c-1.1-.84-2.27-1.66-3.42-2.43a18.27,18.27,0,0,0-1.75-1.07c-.14-.07-.29-.15-.42-.2l-.19-.08s0,0-.07,0a2.35,2.35,0,0,0-.78.08,21.9,21.9,0,0,0-3.78,1.63C388.84,147.73,387.6,148.43,386.32,149.11Z" style="fill: rgb(38, 50, 56); transform-origin: 401.38px 146.805px;" id="el4dcpz1y47c8" class="animable"></path><path d="M66.1,190.93a31.37,31.37,0,0,1,2.69-3.4,16.76,16.76,0,0,1,3.34-2.95,3.71,3.71,0,0,1,1.25-.52,2.26,2.26,0,0,1,.46,0l.33,0,.59.11a21.65,21.65,0,0,1,2.15.65c1.39.5,2.7,1.09,4,1.71l-1.12.18a31.22,31.22,0,0,1,3.45-2.93,19.1,19.1,0,0,1,1.95-1.25,7.76,7.76,0,0,1,1.13-.51,5.74,5.74,0,0,1,.66-.18,5.85,5.85,0,0,1,.73,0,8.19,8.19,0,0,1,2.34.64,21.32,21.32,0,0,1,2,1A28.27,28.27,0,0,1,95.81,186c-1.38-.55-2.74-1.12-4.12-1.6a19.46,19.46,0,0,0-2-.65,7.18,7.18,0,0,0-2-.33,4.23,4.23,0,0,0-1.6.68,16.23,16.23,0,0,0-1.69,1.24c-1.1.88-2.19,1.86-3.21,2.84l-.51.49-.62-.3c-1.24-.63-2.54-1.21-3.82-1.75-.64-.27-1.29-.53-1.91-.72l-.46-.12-.2,0s0,0-.08,0a2.23,2.23,0,0,0-.74.23,21.36,21.36,0,0,0-3.41,2.31C68.32,189.1,67.23,190,66.1,190.93Z" style="fill: rgb(38, 50, 56); transform-origin: 80.955px 186.379px;" id="ellfnpjlwybr" class="animable"></path></g><g id="freepik--Character--inject-5" class="animable animator-active" style="transform-origin: 250px 254.121px;"><path d="M48.31,408.33c0,18.68,114.86,42.31,203.34,42.31,37.23,0,75.08,2,110.46-5.22,48.68-9.88,89.58-31.69,89.58-51.11,0,0-107.72,37.65-212.68,32.43S48.31,408.33,48.31,408.33Z" style="fill: rgb(255, 157, 0); transform-origin: 250px 422.602px;" id="elmxwzhrt5psh" class="animable"></path><g id="elwblwniy0yb"><path d="M48.31,408.33c0,18.68,114.86,42.31,203.34,42.31,37.23,0,75.08,2,110.46-5.22,48.68-9.88,89.58-31.69,89.58-51.11,0,0-107.72,37.65-212.68,32.43S48.31,408.33,48.31,408.33Z" style="opacity: 0.3; transform-origin: 250px 422.602px;" class="animable"></path></g><path d="M48.31,408.33c0,4.12,6.6,12.09,92.6,22.8s163,10.72,213.51,4.95,97.27-32.15,97.27-41.77-81,7.61-120.36,9.07C242.86,406.68,48.31,394,48.31,408.33Z" style="fill: rgb(255, 157, 0); transform-origin: 250px 415.666px;" id="elimc87foa3xs" class="animable"></path><g id="elrm6td45guh"><path d="M111,411.49c0,2.35,4.55,6.88,63.8,13s137,6.1,171.89,2.82,67-18.29,67-23.76-55.84,4.33-82.92,5.16C269.87,410.56,111,403.37,111,411.49Z" style="opacity: 0.1; transform-origin: 262.345px 415.701px;" class="animable"></path></g><path d="M89.41,450.23c32.7,0,71.05-12.11,84.39-12.11s52.81,12.11,75.16,12.11c32,0,79.51-6.53,86-6.53,21.17,0,53.77,8.44,82.15,8.44" style="fill: rgb(255, 255, 255); transform-origin: 253.26px 445.13px;" id="el8i1xnxhisrh" class="animable"></path><path d="M89.41,450.23c20.71-.22,41-4.6,61.23-8.73,6.77-1.36,13.5-2.88,20.38-3.58s13.77,1.19,20.55,2.41c19.59,3.75,41.06,9.83,61,9.36,27.51-.3,55-4.12,82.36-6.33,13.82.23,27.43,2.77,41.07,4.7s27.28,3.95,41.07,4.08c-13.79,0-27.5-1.72-41.14-3.59s-27.24-4.35-41-4.52c-27.38,2.33-54.82,6.26-82.35,6.65-20,.4-41.59-5.78-61.19-9.62-6.7-1.23-13.51-3-20.34-2.48-6.83.67-13.58,2.16-20.32,3.48-20.21,4.11-40.65,8.18-61.35,8.17Z" style="fill: rgb(235, 235, 235); transform-origin: 253.225px 444.954px;" id="elvr93cezg6n9" class="animable"></path><path d="M355.06,423.28c-2.56.73-74.91-2.38-77.6-4.24-1-.7-1.18-11.26-1-24,0-2.76,2-46,2-46l47.95.55-3.33,47.28s27.17,13.58,29.89,15.94S357.62,422.54,355.06,423.28Z" style="fill: rgb(211, 118, 106); transform-origin: 316.329px 386.214px;" id="el75rodhx71uo" class="animable"></path><path d="M206.12,160.56s72.73,118.54,73.65,125.36c1.41,10.48-3,102.13-3,102.13l46.48.3s9.16-86.56,2.23-116.87c-5-21.84-69.78-109.42-69.78-109.42Z" style="fill: rgb(211, 118, 106); transform-origin: 267.096px 274.455px;" id="elaycbcfaoeku" class="animable"></path><g id="elql35jxm8lce"><path d="M252.33,162v71.71c-20.94-33.74-46.21-73.11-46.21-73.11Z" style="opacity: 0.1; transform-origin: 229.225px 197.155px;" class="animable"></path></g><path d="M236.68,389.55h-45.2s19.14-99.63,19.33-106.48C211,277,198.18,217.66,195,202.19c-3.41-16.33,3-32.88,11.17-41.63l49.55,1.5s-6.17,25.18-14.61,30.4c0,0,18.74,72.57,18.83,91.36C260,307.78,236.68,389.55,236.68,389.55Z" style="fill: rgb(211, 118, 106); transform-origin: 225.71px 275.055px;" id="ell4x7xxoeywb" class="animable"></path><path d="M195.86,178s25.19-8.95,45.2,14.42c0,0,13.65-8.2,17.58-30.38l-52.52-1.52S199.81,164.77,195.86,178Z" style="fill: rgb(255, 157, 0); transform-origin: 227.25px 176.47px;" id="elt8tnbjp43nj" class="animable"></path><path d="M205.18,173.09c-.06-3.12-1.31-6.07-2.54-9-.47.61-1,1.3-1.48,2.09l0,.06a21.45,21.45,0,0,1,2.53,7c.17,1.05.29,2.14.43,3.24l1.17-.08C205.3,175.3,205.28,174.18,205.18,173.09ZM238.6,161.5c-1.09,5.28-8.64,9.19-13.31,11.58-2.21,1.15-3.6,3.16-4.88,5.25.73.23,1.47.48,2.21.77a31.48,31.48,0,0,1,2.44-3,21.87,21.87,0,0,1,3.05-1.9c4.53-2.61,10.35-7.36,11-12.65Zm13.81.4-.74,0c2.65,2.34,3.46,7.59,4,10.94a.29.29,0,0,0,0,.09c.37-.95.73-1.94,1.06-3C256,167.07,254.6,163.76,252.41,161.9ZM240.13,186c-2.42-.12-4.37-1.65-4.28-4.16.47-2.52,3-3.81,4.49-6.09a9.27,9.27,0,0,0,1.68-4.09c.53-3,.58-7.94,3.19-10h-.36a8.05,8.05,0,0,0-2.1,3.13,54.79,54.79,0,0,0-2.06,6.6,9.27,9.27,0,0,1-1.75,3.31c-1.58,2.12-4.73,3.84-5.07,7a5.63,5.63,0,0,0,3.13,5.43c2.76,1.23,5.86.61,8.61.28l1.38-.18c.4-.44.8-.9,1.21-1.4C245.51,185.69,242.7,186.27,240.13,186Z" style="fill: rgb(255, 255, 255); transform-origin: 228.945px 174.681px;" id="elevnhez8pmlk" class="animable"></path><path d="M266.29,432.06c-2.51.92-77,.69-80.52-2.73C184,427.62,197,359.89,197,359.89l46.47,1.57L233,405s27.61,14.64,30.49,16.79S268.79,431.14,266.29,432.06Z" style="fill: rgb(211, 118, 106); transform-origin: 226.468px 396.207px;" id="elcd0nhg0p3ql" class="animable"></path><path d="M264,92.18c-1,3.55-2.1,7.12-3.31,10.62a66.47,66.47,0,0,1-2.55,6.22,16.18,16.18,0,0,1-3.42.91q.36-.78.72-1.53a73.14,73.14,0,0,0,2.9-7.45c0-.08-.1-.11-.13,0-1,2.56-2.21,5.06-3.43,7.52q-.41.81-.84,1.59a23.75,23.75,0,0,1-3.34.12c.31-.58.61-1.16.9-1.73.69-1.35,1.36-2.72,2-4.11a75,75,0,0,0,3.15-8.4c0-.12-.14-.16-.19,0-1.1,2.87-2.31,5.71-3.62,8.49-.61,1.32-1.26,2.63-1.93,3.92-.32.62-.67,1.22-1,1.84a37.71,37.71,0,0,1-6.05-.88c-5.72-1.26-11.07-4.41-15.73-8a33.17,33.17,0,0,1-9.72-11.47,26.93,26.93,0,0,0,6.11-5.21.07.07,0,0,0-.1-.1q-2,1.74-4.23,3.28c-.68.48-1.39.93-2.1,1.38L218,89c-.21-.46-.43-.94-.63-1.45a43.65,43.65,0,0,0,4-3.14,38.7,38.7,0,0,0,5-5.11.12.12,0,0,0-.18-.17c-1.76,1.54-3.48,3.13-5.26,4.65-1.26,1.06-2.59,2-3.88,3.08a5.84,5.84,0,0,1,0-4.74A10.64,10.64,0,0,1,220,79.13,43,43,0,0,0,223.38,76c2.21-2.25,12.39-20.46,21.87-19.61.06-.06,15.34-1.37,20.25,7.12,7.79,13.47-.1,37.88-1.58,40.5a11.23,11.23,0,0,1-4.73,4.5c.78-1.72,1.44-3.5,2-5.25a105.81,105.81,0,0,0,3-11.08A.09.09,0,1,0,264,92.18Z" style="fill: rgb(38, 50, 56); transform-origin: 242.716px 83.2387px;" id="el95wrxsjup4e" class="animable"></path><path d="M247.28,115.73c6.62,16.43,16.57,33.52,24,40.67,5,4.8,27.87,2.5,48.95-3,4.18-1.09-8.31-30-12.81-29-14.5,3.23-21.93,6.13-24.46,5.14-2.07-.8-13.63-10.81-22.64-19.78C245.92,95.47,242.61,104.17,247.28,115.73Z" style="fill: rgb(211, 118, 106); transform-origin: 283.188px 130.665px;" id="elv9jsszfpo4s" class="animable"></path><g id="elvzfx6xullrp"><path d="M282.8,159c-5.59-.05-9.76-.85-11.57-2.6-7.38-7.15-17.33-24.24-24-40.67-4.16-10.31-2-18.34,8.69-9.84Z" style="opacity: 0.1; transform-origin: 264.024px 130.659px;" class="animable"></path></g><path d="M260.65,149.65l-2,12.43-52.76-1.24s8.27-43,26.71-57.28c9.22-7.12,15.35-5.22,20.16,1.68C254,107,266.68,127.48,267,136.67,267.31,144.78,260.65,149.65,260.65,149.65Z" style="fill: rgb(211, 118, 106); transform-origin: 236.45px 130.569px;" id="el7ifehy4m27h" class="animable"></path><path d="M252.32,104.63c-.62.91,8.15,21.56,8.12,22.62s-5.54,2.69-7.94,2.13-7.22-3-8.34-4.4-4.77-24.23-5.26-25.15-3,.94-3,.94.74,25.2-.4,27c-7,11.23-25.39,15.51-25.39,15.51-2.67,3.08-4.2,17.54-4.2,17.54l52.76,1.24,2.66-12.3s6.91-5.86,6-14.13-11.75-27.81-12.85-29.24C254.1,106,252.5,104.36,252.32,104.63Z" style="fill: rgb(255, 157, 0); transform-origin: 236.661px 130.817px;" id="elgr5wdyi4rj8" class="animable"></path><path d="M237.21,155.31c-1.56-2.25-4.42-3-7-3.13a78,78,0,0,0-9.79.23,13.07,13.07,0,0,1-5.24-.86c-2.27-.74-4.61-2.41-7.14-3.28-.23.87-.44,1.79-.63,2.72,2.27.74,4.44,2.28,7,2.92a13.22,13.22,0,0,0,6.25.4c4.83-.73,12.85-3.47,16.33,1.16a7.39,7.39,0,0,1,1.59,6.14h.51A8.24,8.24,0,0,0,237.21,155.31Zm29-24.15c-.05.05-.1.11-.16.16-2.34,2.53-7.23,3.51-9.57.49a9,9,0,0,1-1.08-2.47c-.28,0-.56.08-.83.1,1.06,3.57,3.25,6,8.83,5a9.32,9.32,0,0,0,3.3-1.56C266.6,132.3,266.44,131.74,266.25,131.16Zm.52,8.32c-2.34-1.09-5.17-1.79-7.54-.51-8.54,4-4.31,15-.41,21.16.06.1.11.2.18.3l.66-3c-3.93-6-8-14.32-.31-18.18,2.48-1.21,5.13-.36,7.65,1.18.06-.24.11-.48.15-.73Zm-20.34,21.36a4.34,4.34,0,0,0-1.66.91h.36a4.13,4.13,0,0,1,1.35-.75,5,5,0,0,1,5.23.91h.74A5.76,5.76,0,0,0,246.43,160.84Zm-5.7-42.11a45.91,45.91,0,0,0-.67-5.73,7.59,7.59,0,0,1,.21-3.11,9.54,9.54,0,0,1,.37-1.19c-.19-1.06-.38-2.09-.55-3a31.23,31.23,0,0,0-1.24,3.9,7.68,7.68,0,0,0,.11,3.69c.69,2.79,2.74,7.35.21,9.64a4.39,4.39,0,0,1-3.21,1.29c0,.1,0,.19,0,.28a4.89,4.89,0,0,0,3.33-1.46A5.17,5.17,0,0,0,240.73,118.73ZM239,100.05a4,4,0,0,0-1.4-.27,9.66,9.66,0,0,0-1.7,1s0,.28,0,.78a3.5,3.5,0,0,1,3.56.7C239.24,101.19,239.08,100.42,239,100.05Zm9.93,38.33c.72-4.73,2.92-10.51-4-11.3-3.94-.25-6.72,3.19-9.78,4.89a16.7,16.7,0,0,1-2.46.63c-.58.13-1.18.28-1.81.47a30.33,30.33,0,0,1-3,2.38,38.26,38.26,0,0,1,6.52-1.52c3.33-.59,5.3-4,8.13-5.35,2.11-1.2,5.61-.82,6.55,1.71.7,2.65-.57,5.27-1.14,7.9-1,3.52.24,7.44,0,10.95-.07,2.43-1.57,4.41-4.08,4.37-2.52-.42-3.87-3-6.18-4.37a9.3,9.3,0,0,0-4.12-1.59c-3.41-.54-9.39-.4-10.75-4.25a5,5,0,0,1,.73-5.17l-.72.37a5.72,5.72,0,0,0-.19,4.86c.57,1.84,2.34,2.94,4,3.59a55.32,55.32,0,0,0,6.64,1.93,9.08,9.08,0,0,1,3.34,1.68c2.15,1.54,3.93,4.65,7.06,4.93a5.61,5.61,0,0,0,5.37-3.24c1.17-2.77.49-5.86.11-8.61A15.25,15.25,0,0,1,248.9,138.38Z" style="fill: rgb(255, 255, 255); transform-origin: 237.26px 130.845px;" id="elhnocmwh003v" class="animable"></path><path d="M253.18,146.27a49.91,49.91,0,0,0-8.43.87c-1.39.28-2.75.63-4.12,1-.68.19-1.36.36-2,.52a8.1,8.1,0,0,1-2.18.28c-.06,0-.07.11,0,.11a13.08,13.08,0,0,0,2.07.13,13.52,13.52,0,0,0,2-.26c1.41-.27,2.8-.62,4.21-.9,2.83-.58,5.67-1.16,8.53-1.51C253.33,146.51,253.32,146.26,253.18,146.27Z" style="fill: rgb(38, 50, 56); transform-origin: 244.852px 147.726px;" id="eld6oxjfow0vr" class="animable"></path><path d="M259.87,149.63a55.69,55.69,0,0,0-6.91-.94c-1.16-.08-2.32-.08-3.49-.05l-1.66.08c-.62,0-1.23.17-1.84.2-.06,0-.07.11,0,.11.57,0,1.15.09,1.73.12s1.15.06,1.73.09c1.16.07,2.32.14,3.48.19,2.32.1,4.63.23,6.94.42C260,149.86,260,149.66,259.87,149.63Z" style="fill: rgb(38, 50, 56); transform-origin: 252.943px 149.236px;" id="elyo65nkqgaw9" class="animable"></path><path d="M240.45,101.51c.2,1.18,5.25,9.06,10.57,9.15,1.73,0,2.3-9.43,2.3-9.43l.2-.68,2.8-9.63L243,81.86S240.37,101,240.45,101.51Z" style="fill: rgb(211, 118, 106); transform-origin: 248.384px 96.26px;" id="elck6zz31vqxd" class="animable"></path><path d="M256.33,90.91l-2.82,9.64-.19.69a25.68,25.68,0,0,1-11.79-8.68S243,81.86,243,81.86Z" style="fill: rgb(38, 50, 56); transform-origin: 248.93px 91.55px;" id="el7rr01cz9x25" class="animable"></path><path d="M268.28,77c1.36,17.55-9,20.35-12.78,20.63-3.44.27-15.17.73-18.34-16.59s4.56-23.5,12.39-24.52S266.92,59.47,268.28,77Z" style="fill: rgb(211, 118, 106); transform-origin: 252.417px 77.0386px;" id="elmglmcct6jdb" class="animable"></path><path d="M265,74.14c-.41,0-.79-.08-1.2-.13a2,2,0,0,1-1.2-.35.62.62,0,0,1-.08-.76,1.54,1.54,0,0,1,1.47-.52,2.22,2.22,0,0,1,1.5.65A.66.66,0,0,1,265,74.14Z" style="fill: rgb(38, 50, 56); transform-origin: 264.046px 73.246px;" id="el16m7mbebar" class="animable"></path><path d="M253.27,74.79c.39-.15.72-.35,1.09-.53a1.91,1.91,0,0,0,1-.75.62.62,0,0,0-.18-.73,1.55,1.55,0,0,0-1.57,0,2.28,2.28,0,0,0-1.19,1.12A.67.67,0,0,0,253.27,74.79Z" style="fill: rgb(38, 50, 56); transform-origin: 253.889px 73.6992px;" id="el6w0xh673j6f" class="animable"></path><path d="M255.89,78.21s-.09.06-.09.11c.12,1.18,0,2.56-1,3,0,0,0,.07,0,.06C256.11,81.14,256.19,79.31,255.89,78.21Z" style="fill: rgb(38, 50, 56); transform-origin: 255.417px 79.7955px;" id="elku33k1z1gg" class="animable"></path><path d="M254.75,77c-1.92,0-1.83,3.83-.05,3.85S256.36,77.05,254.75,77Z" style="fill: rgb(38, 50, 56); transform-origin: 254.667px 78.925px;" id="elfrd6p9bjq7" class="animable"></path><path d="M254,77.26c-.33.22-.65.62-1.06.67s-.83-.34-1.14-.72c0,0-.07,0-.07.05,0,.73.31,1.48,1.1,1.57s1.23-.58,1.39-1.33C254.25,77.37,254.13,77.17,254,77.26Z" style="fill: rgb(38, 50, 56); transform-origin: 252.977px 78.0241px;" id="eln01immt31xs" class="animable"></path><path d="M262.63,77.56s.1.06.1.11c0,1.19.16,2.56,1.25,2.93,0,0,0,.08,0,.07C262.65,80.51,262.43,78.69,262.63,77.56Z" style="fill: rgb(38, 50, 56); transform-origin: 263.273px 79.1154px;" id="el7tiuw0x8s0h" class="animable"></path><path d="M263.67,76.3c1.92-.18,2.14,3.66.36,3.83S262.07,76.45,263.67,76.3Z" style="fill: rgb(38, 50, 56); transform-origin: 263.91px 78.2147px;" id="el0k74fxhounkw" class="animable"></path><path d="M264.49,76.51c.31.19.63.54,1,.54s.71-.43.95-.84c0,0,.06,0,.06,0,.07.73-.13,1.51-.83,1.69s-1.14-.44-1.36-1.16C264.27,76.65,264.36,76.43,264.49,76.51Z" style="fill: rgb(38, 50, 56); transform-origin: 265.407px 77.0707px;" id="elszzotscgteq" class="animable"></path><path d="M256.3,87.91c.27.29.55.68,1,.72a3,3,0,0,0,1.29-.27,0,0,0,0,1,.05.06,1.61,1.61,0,0,1-1.53.62,1.28,1.28,0,0,1-.91-1.07C256.16,87.9,256.25,87.87,256.3,87.91Z" style="fill: rgb(38, 50, 56); transform-origin: 257.415px 88.4755px;" id="el3hfb3qu85ec" class="animable"></path><path d="M261.23,83.18s.31,1.77.34,2.6c0,.08-.2.13-.48.16,0,0,0,0,0,0a4,4,0,0,1-3.92-1.35.09.09,0,0,1,.12-.12,6,6,0,0,0,3.68.91c.05-.23-.64-3-.51-3a7.86,7.86,0,0,1,1.92.36c-.54-3.7-1.67-7.29-2.16-11,0-.13.18-.18.22-.06a60.76,60.76,0,0,1,2.83,11.73C263.32,83.87,261.57,83.31,261.23,83.18Z" style="fill: rgb(38, 50, 56); transform-origin: 260.216px 78.8212px;" id="el5qcm0yogjgi" class="animable"></path><path d="M260.72,85.82a4.69,4.69,0,0,1-1.79,1.52,2.09,2.09,0,0,1-1.27.13c-.92-.2-1-1-.85-1.77a5.23,5.23,0,0,1,.36-1.12A6,6,0,0,0,260.72,85.82Z" style="fill: rgb(38, 50, 56); transform-origin: 258.735px 86.0476px;" id="elu1pkiqz942a" class="animable"></path><path d="M258.93,87.34a2.09,2.09,0,0,1-1.27.13c-.92-.2-1-1-.85-1.77A2.18,2.18,0,0,1,258.93,87.34Z" style="fill: rgb(255, 152, 185); transform-origin: 257.84px 86.6076px;" id="elltxzqw8s9y" class="animable"></path><path d="M238.73,82.7c3.7-.4,3-8.88,3-8.88s6.14-1.77,8.32-6.27c0,0-1.38,3.85-3.68,5.6-.39.29,12.18-2.22,12.44-12.06,0,0,2.8,9.42,8.78,10.82.28.07-1.7-8.65-3.76-10.53a20.69,20.69,0,0,0-17.58-4.93c-7.69,1.89-12,10.57-12.27,14C233.5,77.16,237,82.89,238.73,82.7Z" style="fill: rgb(38, 50, 56); transform-origin: 250.776px 69.4035px;" id="elz03o9pb6ou9" class="animable"></path><path d="M246.84,73.32c6.89-1,12-5.93,11.86-13a.16.16,0,0,1,.31,0c1.63,7.08-5.62,13.09-12.23,13.21C246.63,73.45,246.67,73.34,246.84,73.32Z" style="fill: rgb(38, 50, 56); transform-origin: 252.965px 66.8648px;" id="elekegjasp3rr" class="animable"></path><path d="M238.71,82.31c3.57-2.29,3.8-6.12,3.71-10,0-.11.19-.14.2,0,.42,3.75.18,8.41-3.74,10.29A.17.17,0,0,1,238.71,82.31Z" style="fill: rgb(38, 50, 56); transform-origin: 240.708px 77.414px;" id="el95ylvy8q1b" class="animable"></path><path d="M258.77,59.62s.06,0,.07,0c1.23,3.88,2.05,10.55,7.23,11.06a.11.11,0,0,1,0,.22C261.05,70.85,258.63,63.78,258.77,59.62Z" style="fill: rgb(38, 50, 56); transform-origin: 262.472px 65.26px;" id="el256nnlykort" class="animable"></path><path d="M240.81,81.46s-3.81-5.57-6.33-4.22.3,9.39,3.23,10.52a3,3,0,0,0,4-1.57Z" style="fill: rgb(211, 118, 106); transform-origin: 237.607px 82.5275px;" id="el8eisaontp1" class="animable"></path><path d="M235.35,79.52s-.06.07,0,.08c2,.86,3.12,2.79,3.86,4.78a1.66,1.66,0,0,0-2.47-.48c-.05,0,0,.12.06.11a1.84,1.84,0,0,1,2,.67,8.42,8.42,0,0,1,.95,1.65c.09.18.43.09.36-.13a.08.08,0,0,0,0,0C240.17,83.52,238.17,79.82,235.35,79.52Z" style="fill: rgb(38, 50, 56); transform-origin: 237.721px 82.973px;" id="eleup4utzy1ji" class="animable"></path><path d="M333.53,151.76c-6.2,2.92-21.23,3.92-24.95,2.77s-6.27-26.65-3.37-29.39,24.56-11,31.36-9.32S340,148.74,333.53,151.76Z" style="fill: rgb(211, 118, 106); transform-origin: 322.131px 135.296px;" id="el94tq9o57ib" class="animable"></path><g id="elg5sa30t6btl"><rect x="111.15" y="184.7" width="324.02" height="6.91" style="fill: rgb(199, 199, 199); transform-origin: 273.16px 188.155px; transform: rotate(130.72deg);" class="animable"></rect></g><path d="M173.41,337.58l-48.91,49.5L95.8,362l42.51-54.22a12.59,12.59,0,0,1,7.25-4.16l27.7-5.2.28.23,5,4.28-2.07,27.4A12.58,12.58,0,0,1,173.41,337.58Z" style="fill: rgb(69, 90, 100); transform-origin: 137.17px 342.75px;" id="elz52trdoh94s" class="animable"></path><g id="elh3i7w4dje9"><path d="M161.77,310.92c-15,18.45-30.6,36.59-46.62,54.17,15-18.46,30.6-36.59,46.62-54.17Z" style="opacity: 0.1; transform-origin: 138.46px 338.005px;" class="animable"></path></g><g id="el3mr0n3p12yy"><path d="M167.41,315.78c-14.08,17.39-28.77,34.46-43.87,51,14.09-17.4,28.77-34.47,43.87-51Z" style="opacity: 0.1; transform-origin: 145.475px 341.28px;" class="animable"></path></g><path d="M325.6,115.41c-2,3,2.7,3.66,2.7,3.66s-7,.72-7.88,4.64,4.9,4.35,5.31,4.4c-.37,0-6.8.86-7.27,4.89-.48,4.19,5.36,3.78,5.74,3.76-.34.15-4.77,2.18-4.43,5.33.58,5.4,12.07.5,16.08,2.31,0,0-2.29,7.14-2.32,7.36,0,0,11-4.44,13.16-10a3.79,3.79,0,0,0-1.37-4.55s3.71-1,4.18-4.2c.24-1.63-2.15-3.45-2.15-3.45s2.94-1,3.18-3.79c.2-2.27-2.23-3.74-2.23-3.74s2.4-2.23,1.85-4.61C349.06,112.64,329.92,108.93,325.6,115.41Z" style="fill: rgb(211, 118, 106); transform-origin: 334.487px 131.848px;" id="el2yy80vr8p6h" class="animable"></path><path d="M348,121.75c.06,0,.09-.06,0-.09A33.8,33.8,0,0,0,328.05,119c-.21,0-.23.41,0,.41A69.6,69.6,0,0,1,348,121.75Z" style="fill: rgb(38, 50, 56); transform-origin: 337.971px 120.132px;" id="elk8qfbaej5eq" class="animable"></path><path d="M347.45,129.56c.07,0,.11-.1,0-.13-6.19-2.81-14.6-3.91-21.93-1.54-.25.08-.39.41-.1.34C330.45,127,341.39,127.84,347.45,129.56Z" style="fill: rgb(38, 50, 56); transform-origin: 336.388px 128.077px;" id="eljj4pzzadj98" class="animable"></path><path d="M323.75,137.1c7.11-2,14.16-1.53,21.32,0,.09,0,.11-.12,0-.16-3.3-1.7-8-2.2-11.64-2.28a19.51,19.51,0,0,0-9.79,2.19C323.56,136.91,323.59,137.14,323.75,137.1Z" style="fill: rgb(38, 50, 56); transform-origin: 334.371px 135.875px;" id="elqoepsu6c54" class="animable"></path><path d="M328.3,119.07a21.84,21.84,0,0,0-3.9,1.15,7.37,7.37,0,0,0-3.2,2.19,2.42,2.42,0,0,0-.5,1.68,3.61,3.61,0,0,0,.62,1.7,4.34,4.34,0,0,0,3.17,1.58l3,.26-2.87.79A12.09,12.09,0,0,0,321,130a4.35,4.35,0,0,0-2.07,2.9,2.48,2.48,0,0,0,1.48,2.77,7.54,7.54,0,0,0,3.74.47l3.52-.33-3.2,1.46a11.19,11.19,0,0,0-2.49,1.53,4.72,4.72,0,0,0-1.62,2.19,2.25,2.25,0,0,0,.6,2.29,5,5,0,0,0,2.62.9,39.22,39.22,0,0,0,6.12-.11c1-.06,2.07-.12,3.11-.14a7.44,7.44,0,0,1,3.07.44,7.88,7.88,0,0,0-3.06-.15c-1,.09-2,.23-3.07.37a33.06,33.06,0,0,1-6.24.44,5.87,5.87,0,0,1-3.19-1,3.19,3.19,0,0,1-1-3.34,5.8,5.8,0,0,1,1.94-2.77,12.27,12.27,0,0,1,2.74-1.75l.32,1.12a8.67,8.67,0,0,1-4.43-.51,3.67,3.67,0,0,1-1.79-1.67,4.16,4.16,0,0,1-.35-2.39,5.51,5.51,0,0,1,2.63-3.67,13.33,13.33,0,0,1,4-1.72l.09,1.05a5.22,5.22,0,0,1-3.81-2.16,4.42,4.42,0,0,1-.65-2.14,3.11,3.11,0,0,1,.72-2.12,7.63,7.63,0,0,1,3.6-2.13A17.92,17.92,0,0,1,328.3,119.07Z" style="fill: rgb(38, 50, 56); transform-origin: 326.792px 132.055px;" id="elhr8sux5fefs" class="animable"></path><path d="M308.65,123.09s19.34-21.75,24.13-10c1.43,3.48,3.12,19.49-.08,19.89-4.15.52-6.1-6-6.68-10.34,0,0-5.53,8.33-12.48,6.2A7.21,7.21,0,0,1,308.65,123.09Z" style="fill: rgb(211, 118, 106); transform-origin: 321.588px 121.308px;" id="el0t94bclps2n" class="animable"></path><path d="M332.32,112.12a15.19,15.19,0,0,1,1.57,4.15,34.29,34.29,0,0,1,.76,4.38,51,51,0,0,1,.31,8.92,8.55,8.55,0,0,1-.47,2.32,3.08,3.08,0,0,1-.72,1.15,2.27,2.27,0,0,1-.61.43,2.11,2.11,0,0,1-.71.2,3.68,3.68,0,0,1-2.51-.63,6.85,6.85,0,0,1-1.71-1.73,13.44,13.44,0,0,1-1.86-4.2,30.79,30.79,0,0,1-.86-4.42l.95.21a17.94,17.94,0,0,1-2.25,2.57,16.41,16.41,0,0,1-2.67,2.09,11.69,11.69,0,0,1-3.1,1.34,8.72,8.72,0,0,1-3.33.23,10,10,0,0,0,3.22-.58,11.93,11.93,0,0,0,2.86-1.53,16.48,16.48,0,0,0,2.43-2.14,17.4,17.4,0,0,0,2-2.53l.7-1.12.24,1.32a33.25,33.25,0,0,0,1,4.23,13.42,13.42,0,0,0,1.74,3.82c.77,1.08,1.93,2,3.06,1.85s1.36-1.62,1.5-3a41.72,41.72,0,0,0,.18-4.35c0-1.46,0-2.93-.09-4.39A28,28,0,0,0,332.32,112.12Z" style="fill: rgb(38, 50, 56); transform-origin: 325.071px 122.907px;" id="elb51zoayhq2w" class="animable"></path><path d="M227,107.39c-18.52,16.91-34.43,40.5-33.63,49.67s29.79,32.33,51,39.66c3.95,1.36,15.24-31.25,11-32.75-7.59-2.73-31.47-13.28-31.89-16.36-.2-1.41,4.47-12.26,9.93-29.54C237.62,104.83,236.69,98.52,227,107.39Z" style="fill: rgb(211, 118, 106); transform-origin: 224.824px 150.015px;" id="eltssouv5rntg" class="animable"></path><path d="M291,178.7c.14,3.46-3.23,4.67-3.23,4.67a7.36,7.36,0,0,1,1.24,4.85c-.44,3-5.34,3.64-5.34,3.64a9.05,9.05,0,0,1,.48,5.33c-.7,2.84-5.56,4.18-5.56,4.18a8,8,0,0,1-2.53,5c-3.9,3.31-11.35.93-16.1-.53s-16.86-10.05-19.33-11.46l9.12-30.57s23.17.49,28.51,3C282.79,168.89,290.88,174.82,291,178.7Z" style="fill: rgb(211, 118, 106); transform-origin: 265.817px 185.926px;" id="el0jda8ig71o1" class="animable"></path><path d="M287.74,182.81c-4.25-3.4-9.27-5.35-14.16-7.59a.09.09,0,0,0-.08.17c4.9,2.17,9.3,5.28,14.1,7.64C287.73,183.1,287.85,182.9,287.74,182.81Z" style="fill: rgb(38, 50, 56); transform-origin: 280.615px 179.128px;" id="el2fvq7jst7rp" class="animable"></path><path d="M283.72,191.43a14.26,14.26,0,0,0-3.34-1.6c-1.22-.49-2.45-1-3.69-1.4-2.47-.89-5-1.73-7.48-2.49-.12,0-.2.13-.08.17,2.46.9,4.91,1.83,7.34,2.82l3.63,1.53a16.69,16.69,0,0,0,3.47,1.3A.19.19,0,0,0,283.72,191.43Z" style="fill: rgb(38, 50, 56); transform-origin: 276.427px 188.851px;" id="el8euuxdqrxs6" class="animable"></path><path d="M278.52,201.33a9.93,9.93,0,0,0-3.09-1.29l-3.4-1.16c-2.26-.79-4.52-1.59-6.76-2.45a.09.09,0,1,0-.07.17c2.26.89,4.51,1.82,6.79,2.69l3.35,1.27a9.16,9.16,0,0,0,3.14.88A.06.06,0,0,0,278.52,201.33Z" style="fill: rgb(38, 50, 56); transform-origin: 271.845px 198.932px;" id="elmd0pgmmzxwn" class="animable"></path><path d="M226.69,137.86a113.06,113.06,0,0,1,6-17.56,112.38,112.38,0,0,1-6,17.56Z" style="fill: rgb(38, 50, 56); transform-origin: 229.69px 129.08px;" id="elvjimve3b7u" class="animable"></path><path d="M233.14,122.69a8.87,8.87,0,0,1-3,5.24c1-1.73,2.07-3.47,3-5.24Z" style="fill: rgb(38, 50, 56); transform-origin: 231.64px 125.31px;" id="ele0jjq6p5198" class="animable"></path><path d="M193.86,159c.86,2.52,2.81,4.51,4.51,6.5a105.6,105.6,0,0,0,18.35,15.25,210.68,210.68,0,0,0,27.88,15.58c4.08,2.52,9.87,6.27,14,8.57a25.53,25.53,0,0,0,7.77,2.3c2.68.36,5.48.76,8.14.08-2.64.83-5.48.53-8.19.26a24.68,24.68,0,0,1-8-2.11c-4.76-2.55-9.74-5.59-14.14-8.33a182.14,182.14,0,0,1-28-15.63,95.51,95.51,0,0,1-18.12-15.75c-1.64-2.06-3.52-4.14-4.25-6.72Z" style="fill: rgb(38, 50, 56); transform-origin: 234.16px 183.411px;" id="el9wjkq2x4dh" class="animable"></path><path d="M255.4,164c7.43-.13,15.4-.36,22.49,2.16a36.33,36.33,0,0,1,10.78,8.24c-1.16-1-2.33-1.9-3.54-2.78a37.92,37.92,0,0,0-7.62-4.59c-4.16-1.55-8.73-1.73-13.13-2.26-2.61-.26-6.33-.54-9-.77Z" style="fill: rgb(38, 50, 56); transform-origin: 272.025px 169.164px;" id="eldbgw5eqksb4" class="animable"></path></g><defs>     <filter id="active" height="200%">         <feMorphology in="SourceAlpha" result="DILATED" operator="dilate" radius="2"></feMorphology>                <feFlood flood-color="#32DFEC" flood-opacity="1" result="PINK"></feFlood>        <feComposite in="PINK" in2="DILATED" operator="in" result="OUTLINE"></feComposite>        <feMerge>            <feMergeNode in="OUTLINE"></feMergeNode>            <feMergeNode in="SourceGraphic"></feMergeNode>        </feMerge>    </filter>    <filter id="hover" height="200%">        <feMorphology in="SourceAlpha" result="DILATED" operator="dilate" radius="2"></feMorphology>                <feFlood flood-color="#ff0000" flood-opacity="0.5" result="PINK"></feFlood>        <feComposite in="PINK" in2="DILATED" operator="in" result="OUTLINE"></feComposite>        <feMerge>            <feMergeNode in="OUTLINE"></feMergeNode>            <feMergeNode in="SourceGraphic"></feMergeNode>        </feMerge>            <feColorMatrix type="matrix" values="0   0   0   0   0                0   1   0   0   0                0   0   0   0   0                0   0   0   1   0 "></feColorMatrix>    </filter></defs></svg>